<?xml version="1.0" encoding="utf-8"?>
<!-- Generator: Adobe Illustrator 15.0.0, SVG Export Plug-In . SVG Version: 6.00 Build 0)  -->
<!DOCTYPE svg PUBLIC "-//W3C//DTD SVG 1.1//EN" "http://www.w3.org/Graphics/SVG/1.1/DTD/svg11.dtd">
<svg version="1.1" id="Capa_1" xmlns="http://www.w3.org/2000/svg" xmlns:xlink="http://www.w3.org/1999/xlink" x="0px" y="0px"
	 width="40px" height="40px" viewBox="285.997 376 40 40" enable-background="new 285.997 376 40 40" xml:space="preserve">
<g>
	<path fill="#FFFFFF" d="M306.047,388.558c-4.069,0-7.379,3.31-7.379,7.379c0,4.068,3.31,7.379,7.379,7.379
		c4.069,0,7.38-3.311,7.38-7.379C313.427,391.868,310.116,388.558,306.047,388.558z M311.092,391.828l-2.291,2.292
		c-0.242-0.366-0.557-0.682-0.922-0.927l2.291-2.29C310.508,391.18,310.816,391.49,311.092,391.828z M312.377,394.416h-2.643
		l1.868-1.869C311.952,393.119,312.216,393.747,312.377,394.416z M312.557,395.938c0,0.22-0.011,0.438-0.032,0.651h-3.241
		c0.042-0.21,0.064-0.429,0.064-0.651c0-0.224-0.022-0.441-0.064-0.652h3.241C312.546,395.5,312.557,395.718,312.557,395.938z
		 M306.047,398.369c-1.34,0-2.431-1.091-2.431-2.432s1.091-2.432,2.431-2.432c1.34,0,2.432,1.091,2.432,2.432
		S307.387,398.369,306.047,398.369z M299.537,395.938c0-0.22,0.011-0.438,0.033-0.652h3.241c-0.042,0.211-0.064,0.429-0.064,0.652
		c0,0.223,0.022,0.441,0.065,0.651h-3.242C299.548,396.375,299.537,396.157,299.537,395.938z M299.717,394.416
		c0.161-0.67,0.426-1.3,0.777-1.873l1.873,1.873H299.717z M302.384,397.459l-1.883,1.883c-0.354-0.575-0.622-1.208-0.784-1.883
		H302.384z M312.377,397.459c-0.162,0.673-0.429,1.306-0.78,1.879l-1.879-1.879H312.377z M307.582,392.262v-2.652
		c0.67,0.163,1.299,0.429,1.869,0.781L307.582,392.262z M306.712,389.461v3.243c-0.215-0.044-0.437-0.067-0.665-0.067
		c-0.219,0-0.433,0.022-0.64,0.063v-3.24c0.21-0.021,0.424-0.032,0.64-0.032C306.271,389.427,306.493,389.438,306.712,389.461z
		 M304.538,392.28l-1.892-1.892c0.577-0.355,1.214-0.623,1.892-0.784V392.28z M301.928,390.9l2.291,2.291
		c-0.365,0.244-0.679,0.56-0.922,0.925l-2.292-2.291C301.281,391.486,301.59,391.176,301.928,390.9z M301.013,400.06l2.29-2.291
		c0.245,0.366,0.561,0.68,0.928,0.923l-2.292,2.292C301.6,400.706,301.29,400.397,301.013,400.06z M304.538,399.612v2.658
		c-0.673-0.161-1.306-0.426-1.881-0.777L304.538,399.612z M305.407,402.416v-3.241c0.207,0.041,0.421,0.063,0.64,0.063
		c0.228,0,0.45-0.022,0.665-0.066v3.243c-0.219,0.022-0.44,0.033-0.665,0.033C305.831,402.447,305.618,402.437,305.407,402.416z
		 M307.582,399.63l1.859,1.86c-0.568,0.349-1.195,0.612-1.859,0.774V399.63z M310.16,400.979l-2.291-2.291
		c0.365-0.243,0.681-0.557,0.924-0.923l2.292,2.291C310.809,400.394,310.498,400.703,310.16,400.979z"/>
	<path fill="#FFFFFF" d="M321.616,394.416h-6.28c-0.238-1.459-0.813-2.807-1.641-3.96l4.441-4.441
		c0.277-0.277,0.431-0.659,0.431-1.075c0-0.396-0.164-0.787-0.448-1.072c-0.591-0.591-1.55-0.594-2.137-0.007l-4.439,4.44
		c-1.153-0.832-2.501-1.41-3.961-1.65v-6.269c0-0.393-0.162-0.771-0.455-1.065c-0.28-0.28-0.672-0.441-1.074-0.441
		c-0.835,0-1.515,0.676-1.515,1.506v6.265c-1.468,0.237-2.824,0.815-3.983,1.651l-4.428-4.428c-0.285-0.285-0.666-0.438-1.075-0.435
		c-0.404,0.004-0.783,0.163-1.066,0.447c-0.284,0.284-0.443,0.663-0.447,1.066c-0.005,0.409,0.15,0.79,0.435,1.075l4.429,4.429
		c-0.831,1.154-1.406,2.503-1.645,3.964h-6.255c-0.83,0-1.505,0.683-1.505,1.521s0.675,1.521,1.505,1.521h6.255
		c0.239,1.466,0.817,2.817,1.652,3.974l-4.427,4.429c-0.285,0.284-0.439,0.666-0.435,1.074c0.004,0.404,0.163,0.782,0.447,1.066
		c0.284,0.284,0.663,0.442,1.066,0.447c0.006,0,0.011,0,0.017,0c0.402,0,0.777-0.154,1.058-0.435l4.43-4.43
		c1.156,0.831,2.508,1.406,3.972,1.644v6.266c0,0.83,0.683,1.506,1.522,1.506c0.839,0,1.521-0.676,1.521-1.506v-6.27
		c1.457-0.24,2.802-0.814,3.953-1.643l4.44,4.441c0.276,0.275,0.658,0.428,1.077,0.429c0.396,0,0.788-0.164,1.074-0.451
		c0.589-0.588,0.59-1.544,0.002-2.132l-4.44-4.44c0.833-1.155,1.41-2.507,1.649-3.97h6.279c0.394,0,0.771-0.161,1.065-0.454
		c0.28-0.28,0.441-0.672,0.441-1.074C323.122,395.096,322.446,394.416,321.616,394.416z M316.598,384.475
		c0.248-0.248,0.654-0.245,0.906,0.007c0.123,0.124,0.194,0.29,0.194,0.457c0,0.181-0.064,0.349-0.177,0.461l-4.37,4.37
		c-0.286-0.329-0.595-0.638-0.923-0.925L316.598,384.475z M305.407,380.381c0-0.351,0.29-0.637,0.646-0.637
		c0.174,0,0.341,0.068,0.459,0.186c0.127,0.127,0.2,0.292,0.2,0.451v6.167c-0.22-0.015-0.441-0.023-0.665-0.023
		c-0.215,0-0.428,0.008-0.64,0.022V380.381z M294.588,385.408c-0.118-0.118-0.182-0.278-0.18-0.451
		c0.001-0.175,0.07-0.339,0.192-0.461c0.122-0.122,0.286-0.19,0.461-0.192c0.17-0.004,0.333,0.062,0.451,0.18l4.357,4.357
		c-0.329,0.287-0.638,0.596-0.924,0.925L294.588,385.408z M290.503,396.59c-0.345,0-0.637-0.299-0.637-0.652
		s0.292-0.652,0.637-0.652h6.154c-0.015,0.216-0.023,0.433-0.023,0.652s0.008,0.437,0.023,0.652H290.503z M295.521,407.399
		c-0.118,0.118-0.28,0.183-0.451,0.181c-0.175-0.002-0.339-0.07-0.461-0.192c-0.122-0.123-0.19-0.286-0.192-0.461
		c-0.002-0.174,0.062-0.333,0.18-0.452l4.357-4.356c0.287,0.329,0.596,0.638,0.925,0.924L295.521,407.399z M306.712,411.494
		c0,0.345-0.299,0.636-0.652,0.636s-0.652-0.291-0.652-0.636v-6.166c0.212,0.014,0.425,0.022,0.64,0.022
		c0.224,0,0.445-0.009,0.665-0.024V411.494z M317.513,406.484c0.119,0.12,0.187,0.279,0.186,0.449c0,0.171-0.066,0.332-0.188,0.453
		c-0.123,0.122-0.295,0.195-0.459,0.195c-0.184,0-0.353-0.063-0.464-0.174l-4.369-4.37c0.329-0.286,0.638-0.595,0.925-0.924
		L317.513,406.484z M306.047,404.48c-4.711,0-8.543-3.832-8.543-8.543s3.833-8.544,8.543-8.544s8.544,3.833,8.544,8.544
		S310.758,404.48,306.047,404.48z M322.067,396.39c-0.128,0.127-0.293,0.199-0.451,0.199h-6.18c0.016-0.215,0.023-0.433,0.023-0.651
		c0-0.22-0.008-0.437-0.023-0.652h6.18c0.351,0,0.637,0.29,0.637,0.646C322.252,396.104,322.185,396.271,322.067,396.39z"/>
</g>
</svg>
